HIERARCHY
ROOT Hips
{
	OFFSET 0.000000 0.000000 0.000000
	CHANNELS 6 Xposition Yposition Zposition Zrotation Yrotation Xrotation 
	JOINT LHipJoint
	{
		OFFSET 0.000000 0.000000 0.000000
		CHANNELS 3 Zrotation Yrotation Xrotation
		JOINT LeftUpLeg
		{
			OFFSET 1.363060 -1.794630 0.839290
			CHANNELS 3 Zrotation Yrotation Xrotation
			JOINT LeftLeg
			{
				OFFSET 2.448110 -6.726130 0.000000
				CHANNELS 3 Zrotation Yrotation Xrotation
				JOINT LeftFoot
				{
					OFFSET 2.562200 -7.039590 0.000000
					CHANNELS 3 Zrotation Yrotation Xrotation
					JOINT LeftToeBase
					{
						OFFSET 0.157640 -0.433110 2.322550
						CHANNELS 3 Zrotation Yrotation Xrotation
						End Site
						{
							OFFSET 0.000000 0.000000 0.000000
						}
					}
				}
			}
		}
	}
	JOINT RHipJoint
	{
		OFFSET 0.000000 0.000000 0.000000
		CHANNELS 3 Zrotation Yrotation Xrotation
		JOINT RightUpLeg
		{
			OFFSET -1.305520 -1.794630 0.839290
			CHANNELS 3 Zrotation Yrotation Xrotation
			JOINT RightLeg
			{
				OFFSET -2.542530 -6.985550 0.000000
				CHANNELS 3 Zrotation Yrotation Xrotation
				JOINT RightFoot
				{
					OFFSET -2.568260 -7.056230 0.000000
					CHANNELS 3 Zrotation Yrotation Xrotation
					JOINT RightToeBase
					{
						OFFSET -0.164730 -0.452590 2.363150
						CHANNELS 3 Zrotation Yrotation Xrotation
						End Site
						{
							OFFSET 0.000000 0.000000 0.000000
						}
					}
				}
			}
		}
	}
	JOINT LowerBack
	{
		OFFSET 0.000000 0.000000 0.000000
		CHANNELS 3 Zrotation Yrotation Xrotation
		JOINT Spine
		{
			OFFSET 0.028270 2.035590 -0.193380
			CHANNELS 3 Zrotation Yrotation Xrotation
			JOINT Spine1
			{
				OFFSET 0.056720 2.048850 -0.042750
				CHANNELS 3 Zrotation Yrotation Xrotation
				JOINT Neck
				{
					OFFSET 0.000000 0.000000 0.000000
					CHANNELS 3 Zrotation Yrotation Xrotation
					JOINT Neck1
					{
						OFFSET -0.054170 1.746240 0.172020
						CHANNELS 3 Zrotation Yrotation Xrotation
						JOINT Head
						{
							OFFSET 0.104070 1.761360 -0.123970
							CHANNELS 3 Zrotation Yrotation Xrotation
							End Site
							{
								OFFSET 0.000000 0.000000 0.000000
							}
						}
					}
				}
				JOINT LeftShoulder
				{
					OFFSET 0.000000 0.000000 0.000000
					CHANNELS 3 Zrotation Yrotation Xrotation
					JOINT LeftArm
					{
						OFFSET 3.362410 1.200890 -0.311210
						CHANNELS 3 Zrotation Yrotation Xrotation
						JOINT LeftForeArm
						{
							OFFSET 4.983000 -0.000000 -0.000000
							CHANNELS 3 Zrotation Yrotation Xrotation
							JOINT LeftHand
							{
								OFFSET 3.483560 -0.000000 -0.000000
								CHANNELS 3 Zrotation Yrotation Xrotation
								JOINT LeftFingerBase
								{
									OFFSET 0.000000 0.000000 0.000000
									CHANNELS 3 Zrotation Yrotation Xrotation
									JOINT LeftHandIndex1
									{
										OFFSET 0.715260 -0.000000 -0.000000
										CHANNELS 3 Zrotation Yrotation Xrotation
										End Site
										{
											OFFSET 0.000000 0.000000 0.000000
										}
									}
								}
								JOINT LThumb
								{
									OFFSET 0.000000 0.000000 0.000000
									CHANNELS 3 Zrotation Yrotation Xrotation
									End Site
									{
										OFFSET 0.000000 0.000000 0.000000
									}
								}
							}
						}
					}
				}
				JOINT RightShoulder
				{
					OFFSET 0.000000 0.000000 0.000000
					CHANNELS 3 Zrotation Yrotation Xrotation
					JOINT RightArm
					{
						OFFSET -3.136600 1.374050 -0.404650
						CHANNELS 3 Zrotation Yrotation Xrotation
						JOINT RightForeArm
						{
							OFFSET -5.241900 -0.000000 -0.000000
							CHANNELS 3 Zrotation Yrotation Xrotation
							JOINT RightHand
							{
								OFFSET -3.444170 -0.000000 -0.000000
								CHANNELS 3 Zrotation Yrotation Xrotation
								JOINT RightFingerBase
								{
									OFFSET 0.000000 0.000000 0.000000
									CHANNELS 3 Zrotation Yrotation Xrotation
									JOINT RightHandIndex1
									{
										OFFSET -0.622530 -0.000000 -0.000000
										CHANNELS 3 Zrotation Yrotation Xrotation
										End Site
										{
											OFFSET 0.000000 0.000000 0.000000
										}
									}
								}
								JOINT RThumb
								{
									OFFSET 0.000000 0.000000 0.000000
									CHANNELS 3 Zrotation Yrotation Xrotation
									End Site
									{
										OFFSET 0.000000 0.000000 0.000000
									}
								}
							}
						}
					}
				}
			}
		}
	}
}
MOTION
Frames: 7
Frame Time: 0.008333
-10.663498 16.773334 -1.937895 18.128465 83.606632 27.516023 -9.422881 -0.076519 2.626785 -11.297370 -1.648483 -37.069974 -1.741916 0.457921 25.753965 1.332669 7.643056 -3.083180 0.886800 0.000000 -20.119201 11.425677 -4.326126 -1.527031 0.119310 -12.372383 -2.606353 0.153347 -3.332448 40.361927 -0.188115 7.993920 18.509412 3.613999 0.000000 -89.406999 -10.163986 1.613661 -2.486235 -2.555181 2.187971 -3.925233 -4.460760 2.043693 -1.366774 5.572935 -2.170584 -7.515012 -1.694812 -0.135985 0.022522 0.000000 0.000000 0.000000 -10.382704 14.114197 2.880159 -64.941224 35.173657 18.410360 -4.588254 -15.521461 -0.034002 -6.275505 14.128072 -0.776742 -0.079231 -0.124769 -0.000000 0.000000 0.000000 0.000000 0.000000 0.000000 0.000000 3.004223 4.973202 0.540612 42.696555 40.312737 22.318248 0.410529 74.743821 -0.014381 -2.122559 5.418879 -0.108575 0.008898 -0.441339 -0.000000 0.000000 0.000000 0.000000 0.000000 0.000000 0.000000 
-10.486390 16.727127 -1.945937 21.002479 83.455332 30.073065 -9.299099 -0.000592 2.365585 -12.244038 -0.921329 -37.255844 -1.738028 0.605668 27.894315 1.291297 7.323630 -3.576943 0.760600 0.000000 -20.414800 11.789535 -4.214344 -1.602922 -0.983524 -13.186390 -4.208784 -0.118610 -3.507650 44.002573 -0.486429 6.814354 20.534147 3.466700 -0.000001 -87.275300 -10.388351 1.459343 -2.198859 -2.619195 2.049074 -3.892792 -4.604145 1.912062 -1.439317 5.879761 -2.013781 -7.435467 -1.818316 -0.146169 0.035069 0.000000 0.000000 0.000000 -10.379072 13.667690 2.980421 -65.106866 33.754502 18.773898 -4.507843 -14.849971 -0.030262 -5.595598 13.739609 -0.672286 -0.075840 -0.115212 -0.000000 0.000000 0.000000 0.000000 0.000000 0.000000 0.000000 3.714916 5.229414 0.584912 44.744402 39.106274 22.872251 0.460791 74.116983 -0.012257 -1.905385 5.502149 -0.098908 0.010875 -0.437471 -0.000000 0.000000 0.000000 0.000000 0.000000 0.000000 0.000000 
-10.314493 16.675977 -1.954990 23.566021 83.242374 32.305202 -9.167802 0.080278 2.091072 -13.174774 -0.181523 -37.424029 -1.735123 0.753787 30.079905 1.259454 6.994526 -4.331652 0.601001 0.000000 -20.677600 12.128719 -4.047440 -1.693344 -2.023501 -13.887211 -5.829572 -0.372003 -3.681221 47.732129 -0.810249 4.995395 22.113907 2.898700 -0.000001 -83.869600 -10.573946 1.312419 -1.864442 -2.672891 1.915544 -3.853228 -4.739326 1.785647 -1.523872 6.148625 -1.830126 -7.370243 -1.944074 -0.156169 0.042331 0.000000 0.000000 0.000000 -10.378335 13.260793 3.099571 -65.277374 32.123039 19.034979 -4.433660 -14.107586 -0.026608 -4.913877 13.285606 -0.569628 -0.072555 -0.104482 -0.000000 0.000000 0.000000 0.000000 0.000000 0.000000 0.000000 4.380703 5.528140 0.610929 46.812705 37.796814 23.265244 0.510564 73.387604 -0.010339 -1.700765 5.620838 -0.089947 0.012088 -0.434282 -0.000000 0.000000 0.000000 0.000000 0.000000 0.000000 0.000000 
-10.147736 16.620480 -1.964968 25.868291 82.985500 34.263157 -9.033091 0.162824 1.811426 -14.069009 0.511767 -37.530817 -1.730877 0.898324 32.259389 1.246194 6.720418 -5.325017 0.419800 -0.000000 -20.900601 12.440117 -3.835172 -1.803710 -2.995362 -14.473731 -7.451980 -0.609531 -3.865740 51.517891 -1.147387 2.589370 23.098073 1.913100 -0.000000 -79.357800 -10.724582 1.170658 -1.482246 -2.717716 1.785326 -3.805673 -4.867500 1.662284 -1.618013 6.386802 -1.635566 -7.322378 -2.072943 -0.165993 0.043330 0.000000 0.000000 0.000000 -10.380027 12.891372 3.231523 -65.433775 30.285580 19.214440 -4.366644 -13.313794 -0.023135 -4.239759 12.767430 -0.471065 -0.069412 -0.092805 -0.000000 0.000000 0.000000 0.000000 0.000000 0.000000 0.000000 5.020302 5.846071 0.622103 48.869170 36.405092 23.483938 0.559132 72.541860 -0.008924 -1.557536 5.790902 -0.084689 0.013283 -0.432019 -0.000000 0.000000 0.000000 0.000000 0.000000 0.000000 0.000000 
-9.985787 16.561578 -1.975857 27.949041 82.700845 35.990776 -8.899001 0.244735 1.533908 -14.910733 1.113470 -37.541753 -1.724612 1.036084 34.381627 1.257957 6.550280 -6.525036 0.223200 -0.000000 -21.083500 12.722622 -3.589204 -1.936021 -3.892530 -14.945899 -9.064699 -0.838854 -4.070592 55.315302 -1.486069 -0.266523 23.380300 0.606700 -0.000000 -74.046800 -10.841219 1.033449 -1.055961 -2.754744 1.657724 -3.750456 -4.990546 1.541089 -1.720198 6.601007 -1.442411 -7.292306 -2.205266 -0.175654 0.037917 0.000000 0.000000 0.000000 -10.386628 12.551802 3.369022 -65.554932 28.259868 19.337330 -4.306737 -12.501341 -0.019900 -3.573437 12.188214 -0.377799 -0.066414 -0.080452 -0.000000 0.000000 0.000000 0.000000 0.000000 0.000000 0.000000 5.647743 6.162683 0.621734 50.897857 34.939367 23.516863 0.606077 71.566495 -0.008226 -1.517923 6.025759 -0.085731 0.015120 -0.430765 -0.000000 0.000000 0.000000 0.000000 0.000000 0.000000 0.000000 
-9.828111 16.500570 -1.987486 29.851038 82.401176 37.537997 -8.767795 0.324904 1.264579 -15.692577 1.593023 -37.435096 -1.717038 1.164746 36.399638 1.298489 6.515609 -7.891529 0.011900 -0.000000 -21.228800 12.978102 -3.321168 -2.088211 -4.711602 -15.303911 -10.664176 -1.069724 -4.300376 59.073234 -1.814430 -3.361807 22.917619 -0.844300 -0.000000 -68.278200 -10.926027 0.901243 -0.594162 -2.785342 1.533121 -3.688895 -5.110508 1.422199 -1.828737 6.797300 -1.260608 -7.279228 -2.340731 -0.185136 0.026378 0.000000 0.000000 0.000000 -10.398794 12.232359 3.504695 -65.621908 26.069452 19.426907 -4.253197 -11.710214 -0.016934 -2.905380 11.554079 -0.289831 -0.063534 -0.067702 -0.000000 0.000000 0.000000 0.000000 0.000000 0.000000 0.000000 6.272438 6.459220 0.612821 52.893947 33.399923 23.353358 0.651160 70.447428 -0.008422 -1.616591 6.335094 -0.095873 0.018122 -0.430438 -0.000000 0.000000 0.000000 0.000000 0.000000 0.000000 0.000000 
-9.673984 16.438949 -1.999712 31.595431 82.095239 38.935137 -8.641849 0.402909 1.008000 -16.412101 1.937458 -37.203591 -1.709407 1.283246 38.275871 1.368484 6.627395 -9.378335 -0.217700 0.000000 -21.338000 13.208377 -3.041611 -2.254670 -5.447005 -15.547579 -12.253884 -1.310752 -4.554094 62.738767 -2.120410 -6.453243 21.737424 -2.230400 0.000000 -62.360800 -10.980660 0.775275 -0.109543 -2.810894 1.412639 -3.621951 -5.230501 1.306543 -1.937246 6.985661 -1.116165 -7.286038 -2.479678 -0.194437 0.008079 0.000000 0.000000 0.000000 -10.418064 11.922253 3.629076 -65.619096 23.740396 19.490416 -4.204447 -10.987860 -0.014248 -2.217405 10.874415 -0.206861 -0.060691 -0.054868 -0.000000 0.000000 0.000000 0.000000 0.000000 0.000000 0.000000 6.916191 6.699840 0.601845 54.843680 31.815536 23.006587 0.694785 69.161591 -0.009696 -1.895583 6.724801 -0.119116 0.023027 -0.430749 -0.000000 0.000000 0.000000 0.000000 0.000000 0.000000 0.000000 
